<?xml version="1.0" encoding="UTF-8"?>
<!-- Created with Inkscape (http://www.inkscape.org/) -->
<svg width="275.48mm" height="119.99mm" version="1.1" viewBox="0 0 275.48 119.99" xmlns="http://www.w3.org/2000/svg">
 <g transform="translate(-15.833 -80.615)">
  <g transform="translate(-31.667 35.608)">
   <g>
    <path transform="scale(.26458)" d="m207.87 566.93a28.346 28.346 0 0 0-28.346 28.346 28.346 28.346 0 0 0 28.346 28.346h340.16a28.346 28.346 0 0 0 28.348-28.346 28.346 28.346 0 0 0-28.348-28.346z" fill="#1d1d2c" stroke-width="1.2016"/>
    <rect x="62.5" y="135" width="75" height="15" fill="#1d1d2c" stroke-width=".37363"/>
    <path d="m100 70a35 30.333 0 0 0-35 30.333v34.667h70v-34.667a35 30.333 0 0 0-35-30.333z" fill="#e40c2b" stroke-width=".24165"/>
   </g>
   <path transform="scale(.26458)" d="m377.95 406.3a28.346 28.346 0 0 0-28.348 28.348v75.59h56.693v-75.59a28.346 28.346 0 0 0-28.346-28.348z" fill="#1d1d2c" fill-opacity=".46667" stroke-width=".98766"/>
   <g fill="#e40c2b" stroke-width=".1452">
    <path transform="matrix(-.99968 -.021907 .021907 -.99968 199.82 115.54)" d="m100.7 48.346a2.5 1.9967 0 0 0-2.4996 1.9968 2.5 1.9967 0 0 0 0.01447 0.20348h-0.01447v15.599h0.01447a2.5 1.9967 0 0 0-0.01447 0.20348 2.5 1.9967 0 0 0 2.4996 1.9968 2.5 1.9967 0 0 0 2.5001-1.9968 2.5 1.9967 0 0 0-0.0145-0.20348h0.0145v-15.599h-0.0145a2.5 1.9967 0 0 0 0.0145-0.20348 2.5 1.9967 0 0 0-2.5001-1.9968z"/>
    <path transform="matrix(-.93101 .36478 -.36478 -.93101 194.88 76.42)" d="m100.7 48.346a2.5 1.9967 0 0 0-2.4996 1.9968 2.5 1.9967 0 0 0 0.01447 0.20348h-0.01447v15.599h0.01447a2.5 1.9967 0 0 0-0.01447 0.20348 2.5 1.9967 0 0 0 2.4996 1.9968 2.5 1.9967 0 0 0 2.5001-1.9968 2.5 1.9967 0 0 0-0.0145-0.20348h0.0145v-15.599h-0.0145a2.5 1.9967 0 0 0 0.0145-0.20348 2.5 1.9967 0 0 0-2.5001-1.9968z"/>
    <path transform="matrix(-.67166 .74073 -.74073 -.67166 172.61 35.704)" d="m100.7 48.346a2.5 1.9967 0 0 0-2.4996 1.9968 2.5 1.9967 0 0 0 0.01447 0.20348h-0.01447v15.599h0.01447a2.5 1.9967 0 0 0-0.01447 0.20348 2.5 1.9967 0 0 0 2.4996 1.9968 2.5 1.9967 0 0 0 2.5001-1.9968 2.5 1.9967 0 0 0-0.0145-0.20348h0.0145v-15.599h-0.0145a2.5 1.9967 0 0 0 0.0145-0.20348 2.5 1.9967 0 0 0-2.5001-1.9968z"/>
    <path transform="matrix(-.67166 -.74073 .74073 -.67166 162.74 184.96)" d="m100.7 48.346a2.5 1.9967 0 0 0-2.4996 1.9968 2.5 1.9967 0 0 0 0.01447 0.20348h-0.01447v15.599h0.01447a2.5 1.9967 0 0 0-0.01447 0.20348 2.5 1.9967 0 0 0 2.4996 1.9968 2.5 1.9967 0 0 0 2.5001-1.9968 2.5 1.9967 0 0 0-0.0145-0.20348h0.0145v-15.599h-0.0145a2.5 1.9967 0 0 0 0.0145-0.20348 2.5 1.9967 0 0 0-2.5001-1.9968z"/>
    <path transform="matrix(-.93101 -.36478 .36478 -.93101 192.72 149.92)" d="m100.7 48.346a2.5 1.9967 0 0 0-2.4996 1.9968 2.5 1.9967 0 0 0 0.01447 0.20348h-0.01447v15.599h0.01447a2.5 1.9967 0 0 0-0.01447 0.20348 2.5 1.9967 0 0 0 2.4996 1.9968 2.5 1.9967 0 0 0 2.5001-1.9968 2.5 1.9967 0 0 0-0.0145-0.20348h0.0145v-15.599h-0.0145a2.5 1.9967 0 0 0 0.0145-0.20348 2.5 1.9967 0 0 0-2.5001-1.9968z"/>
    <path transform="matrix(-.99968 -.021907 .021907 -.99968 199.72 115.54)" d="m100.7 48.346a2.5 1.9967 0 0 0-2.4996 1.9968 2.5 1.9967 0 0 0 0.01447 0.20348h-0.01447v15.599h0.01447a2.5 1.9967 0 0 0-0.01447 0.20348 2.5 1.9967 0 0 0 2.4996 1.9968 2.5 1.9967 0 0 0 2.5001-1.9968 2.5 1.9967 0 0 0-0.0145-0.20348h0.0145v-15.599h-0.0145a2.5 1.9967 0 0 0 0.0145-0.20348 2.5 1.9967 0 0 0-2.5001-1.9968z"/>
   </g>
  </g>
  <text transform="matrix(.52464 0 0 .26458 -168.14 0)" fill="#000000" font-family="Aileron" font-size="192px" style="line-height:1.25;shape-inside:url(#rect3511);white-space:pre" xml:space="preserve"/>
  <g fill="#1d1d2c" font-family="sans-serif">
   <text transform="scale(.92464 1.0815)" x="114.45904" y="171.25092" font-size="76.306px" stroke-width=".28615" style="line-height:1.25" xml:space="preserve"><tspan x="114.45904" y="171.25092" fill="#1d1d2c" font-family="sans-serif" font-size="76.306px" font-weight="bold" stroke-width=".28615">T</tspan></text>
   <g font-weight="bold">
    <text transform="scale(.94126 1.0624)" x="157.41368" y="174.32857" font-size="74.959px" stroke-width=".2811" style="line-height:1.25" xml:space="preserve"><tspan x="157.41368" y="174.32857" fill="#1d1d2c" font-family="sans-serif" font-size="74.959px" font-weight="bold" stroke-width=".2811">S</tspan></text>
    <text transform="scale(.92464 1.0815)" x="206.02626" y="171.25092" font-size="76.306px" stroke-width=".28615" style="line-height:1.25" xml:space="preserve"><tspan x="206.02626" y="171.25092" fill="#1d1d2c" font-family="sans-serif" font-size="76.306px" font-weight="bold" stroke-width=".28615">A</tspan></text>
    <text transform="scale(.92464 1.0815)" x="257.53284" y="171.25092" font-size="76.306px" stroke-width=".28615" style="line-height:1.25" xml:space="preserve"><tspan x="257.53284" y="171.25092" fill="#1d1d2c" font-family="sans-serif" font-size="76.306px" font-weight="bold" stroke-width=".28615">N</tspan></text>
   </g>
  </g>
 </g>
</svg>
